<mxfile host="app.diagrams.net" modified="2024-04-28T08:14:45.859Z" agent="Mozilla/5.0 (Windows NT 10.0; Win64; x64) AppleWebKit/537.36 (KHTML, like Gecko) Chrome/124.0.0.0 Safari/537.36" etag="q0vjGK8SiTnxBjTCfuD5" version="24.3.1" type="device">
  <diagram name="Page-1" id="smMC8HHzi5TTLxAcSufY">
    <mxGraphModel dx="496" dy="341" grid="1" gridSize="10" guides="1" tooltips="1" connect="1" arrows="1" fold="1" page="1" pageScale="1" pageWidth="827" pageHeight="1169" math="0" shadow="0">
      <root>
        <mxCell id="0" />
        <mxCell id="1" parent="0" />
        <mxCell id="E2bi92JBgwzl2op0pFUt-2" style="edgeStyle=orthogonalEdgeStyle;rounded=0;orthogonalLoop=1;jettySize=auto;html=1;exitX=0;exitY=0.5;exitDx=0;exitDy=0;exitPerimeter=0;endArrow=oval;endFill=1;" edge="1" parent="1" source="E2bi92JBgwzl2op0pFUt-1">
          <mxGeometry relative="1" as="geometry">
            <mxPoint x="200" y="280.1111111111111" as="targetPoint" />
          </mxGeometry>
        </mxCell>
        <mxCell id="E2bi92JBgwzl2op0pFUt-3" style="edgeStyle=orthogonalEdgeStyle;rounded=0;orthogonalLoop=1;jettySize=auto;html=1;exitX=1;exitY=0.5;exitDx=0;exitDy=0;exitPerimeter=0;endArrow=none;endFill=0;" edge="1" parent="1" source="E2bi92JBgwzl2op0pFUt-1">
          <mxGeometry relative="1" as="geometry">
            <mxPoint x="440" y="280.1111111111111" as="targetPoint" />
          </mxGeometry>
        </mxCell>
        <mxCell id="E2bi92JBgwzl2op0pFUt-1" value="R" style="pointerEvents=1;verticalLabelPosition=bottom;shadow=0;dashed=0;align=center;html=1;verticalAlign=top;shape=mxgraph.electrical.resistors.resistor_2;" vertex="1" parent="1">
          <mxGeometry x="240" y="270" width="100" height="20" as="geometry" />
        </mxCell>
        <mxCell id="E2bi92JBgwzl2op0pFUt-7" style="edgeStyle=orthogonalEdgeStyle;rounded=0;orthogonalLoop=1;jettySize=auto;html=1;exitX=0;exitY=0.5;exitDx=0;exitDy=0;exitPerimeter=0;endArrow=none;endFill=0;" edge="1" parent="1" source="E2bi92JBgwzl2op0pFUt-4">
          <mxGeometry relative="1" as="geometry">
            <mxPoint x="440.1111111111111" y="280" as="targetPoint" />
          </mxGeometry>
        </mxCell>
        <mxCell id="E2bi92JBgwzl2op0pFUt-8" style="edgeStyle=orthogonalEdgeStyle;rounded=0;orthogonalLoop=1;jettySize=auto;html=1;exitX=1;exitY=0.5;exitDx=0;exitDy=0;exitPerimeter=0;endArrow=none;endFill=0;" edge="1" parent="1" source="E2bi92JBgwzl2op0pFUt-4">
          <mxGeometry relative="1" as="geometry">
            <mxPoint x="440.1111111111111" y="400" as="targetPoint" />
          </mxGeometry>
        </mxCell>
        <mxCell id="E2bi92JBgwzl2op0pFUt-4" value="" style="pointerEvents=1;verticalLabelPosition=bottom;shadow=0;dashed=0;align=center;html=1;verticalAlign=top;shape=mxgraph.electrical.capacitors.capacitor_1;direction=south;" vertex="1" parent="1">
          <mxGeometry x="410" y="290" width="60" height="100" as="geometry" />
        </mxCell>
        <mxCell id="E2bi92JBgwzl2op0pFUt-6" style="edgeStyle=orthogonalEdgeStyle;rounded=0;orthogonalLoop=1;jettySize=auto;html=1;exitX=0;exitY=0.645;exitDx=0;exitDy=0;exitPerimeter=0;endArrow=none;endFill=0;" edge="1" parent="1" source="E2bi92JBgwzl2op0pFUt-5">
          <mxGeometry relative="1" as="geometry">
            <mxPoint x="359.83333333333326" y="280" as="targetPoint" />
          </mxGeometry>
        </mxCell>
        <mxCell id="E2bi92JBgwzl2op0pFUt-9" style="edgeStyle=orthogonalEdgeStyle;rounded=0;orthogonalLoop=1;jettySize=auto;html=1;exitX=1;exitY=0.645;exitDx=0;exitDy=0;exitPerimeter=0;endArrow=none;endFill=0;" edge="1" parent="1" source="E2bi92JBgwzl2op0pFUt-5">
          <mxGeometry relative="1" as="geometry">
            <mxPoint x="359.83333333333326" y="400" as="targetPoint" />
          </mxGeometry>
        </mxCell>
        <mxCell id="E2bi92JBgwzl2op0pFUt-5" value="" style="pointerEvents=1;verticalLabelPosition=bottom;shadow=0;dashed=0;align=center;html=1;verticalAlign=top;shape=mxgraph.electrical.inductors.inductor_5;direction=south;" vertex="1" parent="1">
          <mxGeometry x="355" y="290" width="14" height="100" as="geometry" />
        </mxCell>
        <mxCell id="E2bi92JBgwzl2op0pFUt-10" value="" style="endArrow=none;html=1;rounded=0;endFill=0;startArrow=oval;startFill=1;" edge="1" parent="1">
          <mxGeometry width="50" height="50" relative="1" as="geometry">
            <mxPoint x="200" y="400" as="sourcePoint" />
            <mxPoint x="440" y="400" as="targetPoint" />
          </mxGeometry>
        </mxCell>
        <mxCell id="E2bi92JBgwzl2op0pFUt-11" value="" style="endArrow=classic;html=1;rounded=0;" edge="1" parent="1">
          <mxGeometry width="50" height="50" relative="1" as="geometry">
            <mxPoint x="200" y="380" as="sourcePoint" />
            <mxPoint x="200" y="300" as="targetPoint" />
          </mxGeometry>
        </mxCell>
        <mxCell id="E2bi92JBgwzl2op0pFUt-12" value="L" style="text;html=1;align=center;verticalAlign=middle;resizable=0;points=[];autosize=1;strokeColor=none;fillColor=none;" vertex="1" parent="1">
          <mxGeometry x="325" y="325" width="30" height="30" as="geometry" />
        </mxCell>
        <mxCell id="E2bi92JBgwzl2op0pFUt-13" value="C" style="text;html=1;align=center;verticalAlign=middle;resizable=0;points=[];autosize=1;strokeColor=none;fillColor=none;" vertex="1" parent="1">
          <mxGeometry x="384" y="325" width="30" height="30" as="geometry" />
        </mxCell>
        <mxCell id="E2bi92JBgwzl2op0pFUt-14" value="V" style="text;html=1;align=center;verticalAlign=middle;resizable=0;points=[];autosize=1;strokeColor=none;fillColor=none;" vertex="1" parent="1">
          <mxGeometry x="200" y="325" width="30" height="30" as="geometry" />
        </mxCell>
      </root>
    </mxGraphModel>
  </diagram>
</mxfile>
